<svg id="Layer_1" data-name="Layer 1" xmlns="http://www.w3.org/2000/svg" viewBox="0 0 231 51.36"><defs><style>.cls-1{fill:#b72f2a;}.cls-2{fill:#fff;}.cls-3{fill:#006193;}</style></defs><title>fidelity_international_simplified_rgb_fc</title><g id="_Group_" data-name="&lt;Group&gt;"><g id="_Group_2" data-name="&lt;Group&gt;"><rect id="_Path_" data-name="&lt;Path&gt;" class="cls-1" width="51.36" height="51.36"/><polygon id="_Path_2" data-name="&lt;Path&gt;" class="cls-2" points="35.08 16.52 35.08 11.66 19.82 11.66 19.82 22.07 19.4 22.07 16.52 22.07 16.52 25.38 17.44 25.38 19.82 25.38 19.82 28 19.31 28 16.52 28 16.52 31.32 17.34 31.32 19.82 31.32 19.82 41.51 25.7 41.51 25.7 31.32 30.93 31.32 32.41 28 25.7 28 25.7 26.89 25.7 25.38 33.6 25.38 35.08 22.07 25.7 22.07 25.7 16.52 35.08 16.52"/><g id="_Group_3" data-name="&lt;Group&gt;"><path id="_Compound_Path_" data-name="&lt;Compound Path&gt;" class="cls-3" d="M375.52,285.35h5.05v16.23h-5.05Zm19.8,16.2v-2.29h-.06A6.08,6.08,0,0,1,390,302c-4.54,0-7.63-4.09-7.63-8.63s2.87-8.57,7.56-8.57a5.93,5.93,0,0,1,5.19,2.66h.06v-11h4.57v25.14Zm0-8.13c0-2.45-1.34-4.76-4.2-4.76-2.63,0-4,2.35-4,4.83s1.43,4.82,4.13,4.82,4.07-2.15,4.07-4.89m22.7,0v1.27H406c.19,1.9,1.37,3.81,3.81,3.81a3.53,3.53,0,0,0,3.28-1.93l4.45.34c-1.12,3.34-4.11,5.08-7.95,5.08-4.93,0-8.35-3.36-8.35-8.57s3.42-8.63,8.35-8.63,8.36,3.36,8.36,8.63m-4.57-1.65a3.7,3.7,0,0,0-7.38,0Zm6.22-14.94v24.72h4.58V276.41h-4.58Zm9.11-1a2.67,2.67,0,1,0,2.66,2.64,2.71,2.71,0,0,0-2.66-2.64m-50.71,0a2.67,2.67,0,1,0,2.67,2.64,2.72,2.72,0,0,0-2.67-2.64m48.41,25.72H431V285.23h-4.59ZM441.88,298a3.5,3.5,0,0,1-.92.1c-1.18,0-1.49-.35-1.49-1.08v-8.26h2.41v-3.49h-2.41v-5.11h-4.58v5.11H432.8v3.49h2.09v8.77c0,3.52,1.81,4.25,4.8,4.25a18,18,0,0,0,2.19-.19Zm5.67,8.23h4.79l7.9-21h-5L451.75,296h-.06l-3.47-10.79h-5l6.13,16.32Zm-89.71-16.3v2.84h2.4v8.91h5.05v-8.91h4.76l1.27-2.84h-6v-1.66h6.77l1.27-2.84h-8v-4.77h8v-4.15h-13.1v8.92h-2.4v2.84h2.4v1.66Z" transform="translate(-297.38 -264.82)"/></g><polygon id="_Path_3" data-name="&lt;Path&gt;" class="cls-3" points="225.65 8.71 224.8 8.71 224.8 8.14 227.15 8.14 227.15 8.71 226.3 8.71 226.3 11.37 225.65 11.37 225.65 8.71"/><polygon id="_Path_4" data-name="&lt;Path&gt;" class="cls-3" points="230.26 8.14 229.32 10.34 228.38 8.14 227.65 8.14 227.65 11.38 228.26 11.38 228.26 9.26 228.28 9.26 229.14 11.38 229.5 11.38 230.37 9.21 230.38 9.21 230.38 11.38 231 11.38 231 8.14 230.26 8.14"/></g><g id="_Group_4" data-name="&lt;Group&gt;"><path id="_Compound_Path_2" data-name="&lt;Compound Path&gt;" class="cls-3" d="M361.64,316.07h-1.39v-5.74h1.39Z" transform="translate(-297.38 -264.82)"/><path id="_Compound_Path_3" data-name="&lt;Compound Path&gt;" class="cls-3" d="M366.71,316.07h-1.4v-5.74h1.4l2.09,3.22v-3.22h1.39v5.74H368.8l-2.09-3.27Z" transform="translate(-297.38 -264.82)"/><path id="_Compound_Path_4" data-name="&lt;Compound Path&gt;" class="cls-3" d="M376.05,316.07h-1.4v-4.62h-1.32v-1.12h4v1.12h-1.31Z" transform="translate(-297.38 -264.82)"/><path id="_Compound_Path_5" data-name="&lt;Compound Path&gt;" class="cls-3" d="M381.77,312.62h1.89v1.13h-1.89v1.19h1.89v1.13h-3.29v-5.74h3.29v1.12h-1.89Z" transform="translate(-297.38 -264.82)"/><path id="_Compound_Path_6" data-name="&lt;Compound Path&gt;" class="cls-3" d="M388.56,316.07h-1.4v-5.74H389a2.67,2.67,0,0,1,1.69.43,1.8,1.8,0,0,1,.62,1.45,1.71,1.71,0,0,1-1.11,1.75l1.26,2.11h-1.67l-1.25-2.22Zm.44-3c.58,0,.91-.29.91-.79a.76.76,0,0,0-.82-.8h-.53v1.59Z" transform="translate(-297.38 -264.82)"/><path id="_Compound_Path_7" data-name="&lt;Compound Path&gt;" class="cls-3" d="M396.31,316.07h-1.39v-5.74h1.39l2.1,3.22v-3.22h1.39v5.74h-1.39l-2.1-3.27Z" transform="translate(-297.38 -264.82)"/><path id="_Compound_Path_8" data-name="&lt;Compound Path&gt;" class="cls-3" d="M404.61,315.24l-.25.83h-1.48l1.89-5.74h1.77l1.89,5.74h-1.54l-.25-.83Zm1-3.27-.67,2.14h1.34Z" transform="translate(-297.38 -264.82)"/><path id="_Compound_Path_9" data-name="&lt;Compound Path&gt;" class="cls-3" d="M413.48,316.07h-1.4v-4.62h-1.32v-1.12h4v1.12h-1.31Z" transform="translate(-297.38 -264.82)"/><path id="_Compound_Path_10" data-name="&lt;Compound Path&gt;" class="cls-3" d="M419.89,316.07h-1.4v-5.74h1.4Z" transform="translate(-297.38 -264.82)"/><path id="_Compound_Path_11" data-name="&lt;Compound Path&gt;" class="cls-3" d="M429.18,313.21a3,3,0,1,1-5.11-2.2,3.11,3.11,0,0,1,2.14-.8A2.92,2.92,0,0,1,429.18,313.21Zm-4.65,0a1.62,1.62,0,1,0,1.63-1.69A1.61,1.61,0,0,0,424.53,313.2Z" transform="translate(-297.38 -264.82)"/><path id="_Compound_Path_12" data-name="&lt;Compound Path&gt;" class="cls-3" d="M433.63,316.07h-1.39v-5.74h1.39l2.09,3.22v-3.22h1.4v5.74h-1.4l-2.09-3.27Z" transform="translate(-297.38 -264.82)"/><path id="_Compound_Path_13" data-name="&lt;Compound Path&gt;" class="cls-3" d="M442,315.24l-.25.83h-1.49l1.9-5.74h1.77l1.88,5.74h-1.53l-.25-.83Zm1-3.27-.67,2.14h1.34Z" transform="translate(-297.38 -264.82)"/><path id="_Compound_Path_14" data-name="&lt;Compound Path&gt;" class="cls-3" d="M452.19,314.94v1.13h-3.27v-5.74h1.4v4.61Z" transform="translate(-297.38 -264.82)"/></g><g id="_Group_5" data-name="&lt;Group&gt;"><path id="_Compound_Path_15" data-name="&lt;Compound Path&gt;" class="cls-3" d="M501.31,281.78v15.75a2.51,2.51,0,0,0,2.67,1.64h18.29v2.44h-19.4a5.43,5.43,0,0,1-2.1-.65,10.52,10.52,0,0,1-4.23.77V299.4c1.34-.11,2-.37,2-.77V284.68h-1.91v-2.9Z" transform="translate(-297.38 -264.82)"/><path id="_Path_5" data-name="&lt;Path&gt;" class="cls-3" d="M499,275.94a2.06,2.06,0,1,0,2.06,2,2.12,2.12,0,0,0-2.06-2" transform="translate(-297.38 -264.82)"/><g id="_Group_6" data-name="&lt;Group&gt;"><path id="_Compound_Path_16" data-name="&lt;Compound Path&gt;" class="cls-3" d="M492.59,289.53v-4.2H470.33V291h20.28C491.91,291,492.59,290.49,492.59,289.53Zm-2.66-1.11c0,.4-.26.57-.77.57H473v-1.67h16.93Z" transform="translate(-297.38 -264.82)"/><path id="_Compound_Path_17" data-name="&lt;Compound Path&gt;" class="cls-3" d="M483.06,278.24h0v-1.3H480v1.3H469.33v4h1v1.64h22.49v-1.64h.88v-4Zm7.89,3.54H472.08v-1.44H491Z" transform="translate(-297.38 -264.82)"/><path id="_Compound_Path_18" data-name="&lt;Compound Path&gt;" class="cls-3" d="M469.68,301.61h21.47c1.47,0,2.21-.54,2.21-1.56v-7.74H469.68Zm13.38-7.21h7.32V296h-7.32Zm0,3.66h7.32v.88c0,.4-.25.57-.76.57h-6.56Zm-10.41-3.66H480V296h-7.32Zm0,3.66H480v1.45h-7.32Z" transform="translate(-297.38 -264.82)"/></g><path id="_Compound_Path_19" data-name="&lt;Compound Path&gt;" class="cls-3" d="M522.09,282.85h-8l4.42,11.5c.24.73.53,1.1.86,1.1h2.83v2.46h-4.46c-.46,0-.83-.44-1.14-1.27l-4.18-11.47-4,11.08c-.44,1.1-.92,1.66-1.47,1.66h-4.55v-2.46h2.93c.46,0,.94-.76,1.47-2.3l3.67-10.3h-8v-2.49H511v-3.9h2.66v3.9h8.41Z" transform="translate(-297.38 -264.82)"/></g></g></svg>